<svg xmlns="http://www.w3.org/2000/svg" viewBox="0 0 32 32">
  <defs>
    <linearGradient id="fg" x1="0" y1="1" x2="0" y2="0">
      <stop offset="0%" stop-color="#FF4500"/>
      <stop offset="50%" stop-color="#FF6B35"/>
      <stop offset="100%" stop-color="#FFD700"/>
    </linearGradient>
    <linearGradient id="fire" x1="0.5" y1="1" x2="0.5" y2="0">
      <stop offset="0%" stop-color="#FF4500"/>
      <stop offset="40%" stop-color="#FF6B35"/>
      <stop offset="100%" stop-color="#FFD700"/>
    </linearGradient>
  </defs>
  <rect width="32" height="32" rx="6" fill="#0A0505"/>
  <!-- Flame shape -->
  <path d="M16 4 C16 4 10 12 10 18 C10 22 12.5 26 16 28 C19.5 26 22 22 22 18 C22 12 16 4 16 4 Z M16 8 C16 8 13 14 13 18 C13 20.5 14.3 23 16 24.5 C17.7 23 19 20.5 19 18 C19 14 16 8 16 8 Z" fill="url(#fire)"/>
  <!-- Inner flame -->
  <path d="M16 12 C16 12 14 16 14 19 C14 21 15 23 16 24 C17 23 18 21 18 19 C18 16 16 12 16 12 Z" fill="#FFD700" opacity="0.7"/>
</svg>
